<svg xmlns="http://www.w3.org/2000/svg" viewBox="0 0 512 512" width="512" height="512">
  <rect width="512" height="512" fill="#000000"/>
  <path fill="#FFFFFF" d="
    M 154 36 
    C 162 36, 168 42, 168 50 
    L 168 245 
    C 168 260, 178 270, 194 270 
    C 210 270, 220 260, 220 245 
    L 220 50 
    C 220 42, 226 36, 234 36 
    C 242 36, 248 42, 248 50 
    L 248 245 
    C 248 260, 258 270, 274 270 
    C 290 270, 300 260, 300 245 
    L 300 50 
    C 300 42, 306 36, 314 36 
    C 322 36, 328 42, 328 50 
    L 328 245 
    C 328 260, 338 270, 354 270 
    C 370 270, 380 260, 380 245 
    L 380 50 
    C 380 42, 386 36, 394 36 
    C 402 36, 408 42, 408 50 
    L 408 265 
    C 408 348, 335 378, 302 408 
    L 302 512 
    L 260 512 
    L 260 408 
    C 227 378, 154 348, 154 265 
    L 154 50 
    C 154 42, 146 36, 154 36 Z
  " />
</svg>